<svg xmlns="http://www.w3.org/2000/svg" viewBox="0 -2 75 75">
  <defs><style>
    path{fill:#21596b;}
    @media (prefers-color-scheme: dark) { path{fill:#b0e0e6;} }
  </style></defs>
  <path d="M23 53a12.46 12.46 0 00-6.32-1.8c-4.32 0-7.12 2.92-7.12 7.64s2.64 7.76 7.16 7.76a12 12 0 006.6-2l1.32 5.64a18.8 18.8 0 01-8.2 1.8c-8 0-13.28-4.6-13.28-13 0-8.08 5.24-13.2 13.48-13.2a19.27 19.27 0 018.28 1.88zm17.59 11.43c0-1.68-1.8-2.24-5.12-3.16-3.64-1-8-2.68-8-7.68 0-4.64 3.4-7.72 9.6-7.72a19 19 0 019.36 2.2l-1.24 5.24a18.57 18.57 0 00-8.08-2.2c-2.2 0-3.28.76-3.28 2.12 0 1.64 2.28 2.28 5.28 3.12 3.84 1 7.84 2.8 7.84 7.56S43.23 72 36.67 72A20.53 20.53 0 0127 69.75l1.2-5.28a18.58 18.58 0 008.56 2.32c2.24 0 3.83-.79 3.83-2.36zm22.76 0c0-1.68-1.8-2.24-5.12-3.16-3.64-1-8-2.68-8-7.68 0-4.64 3.4-7.72 9.6-7.72a19 19 0 019.36 2.2l-1.24 5.24a18.57 18.57 0 00-8.08-2.2c-2.2 0-3.28.76-3.28 2.12 0 1.64 2.28 2.28 5.28 3.12 3.84 1 7.84 2.8 7.84 7.56S66 72 59.43 72a20.53 20.53 0 01-9.64-2.28L51 64.47a18.58 18.58 0 008.56 2.32c2.23 0 3.79-.79 3.79-2.36z" class="cls-1" transform="translate(.07 -.93)"/>
  <path d="M50.22 60.66c-.11-.1-.21-.22-.31-.32a.65.65 0 000 .13zM70 7.47c-3.49 1.13-7.5 9.65-10.16 12.12-.31.2-.62.51-1 .82-7.29-13.76-21.35-21.56-30.7-19C21.72 3.16 15.87 10.55 13.2 20c-4.62-2.77-7-7.39-11.09-11.6A6.46 6.46 0 00-.07 6.89V26.4A3.21 3.21 0 013 26.16c2.06.92 3.29 5.23 4 4.82a43.65 43.65 0 005-4.1A40 40 0 0013.2 42a3.21 3.21 0 01.2.82c1-9.14 6.06-16.63 11.71-18.17C33 22.36 45.74 30.57 49.54 44c.21.76.39 1.53.54 2.28 2.2-2.17 5.55-3.43 9.71-3.43a25.77 25.77 0 013.89.3A46.07 46.07 0 0062 28.31a9.77 9.77 0 00-.31-1c3.29 1.74 4.83 4.62 4.93 4.21.88-4.1 4.63-5.32 8.35-4.2v-20a11 11 0 00-4.97.15z" class="cls-1" transform="translate(.07 -.93)"/>
</svg>
