<svg
  data-icon="mail"
  xmlns="http://www.w3.org/2000/svg"
  aria-hidden="true"
  focusable="false"
  width="20px"
  height="20px"
  viewBox="0 0 146 114.7"
>
  <path d="M142.2 3.8C139.6 1.3 136.5 0 133 0H13C9.5 0 6.4 1.3 3.8 3.8 1.3 6.4 0 9.5 0 13v88.6c0 3.6 1.3 6.7 3.8 9.2 2.6 2.6 5.6 3.8 9.2 3.8h120c3.6 0 6.7-1.3 9.2-3.8 2.6-2.6 3.8-5.6 3.8-9.2V13c0-3.5-1.3-6.6-3.8-9.2zm-6.6 97.9c0 .7-.3 1.3-.8 1.8s-1.1.8-1.8.8H13c-.7 0-1.3-.3-1.8-.8s-.8-1.1-.8-1.8V39.1c1.7 2 3.6 3.7 5.6 5.4C30.6 55.7 42.2 64.9 50.8 72c2.8 2.3 5 4.2 6.8 5.5s4.1 2.6 7 4 5.7 2 8.4 2h.1c2.6 0 5.4-.7 8.4-2s5.3-2.6 7-4c1.7-1.3 4-3.1 6.8-5.5 8.6-7.2 20.1-16.3 34.7-27.5 2-1.6 3.9-3.4 5.6-5.4v62.6zm0-86.5v.9c0 3.2-1.3 6.8-3.8 10.7-2.5 3.9-5.3 7.1-8.2 9.4C113.1 44.4 102.2 53 90.9 62c-.3.3-1.3 1.1-2.9 2.4-1.6 1.3-2.8 2.4-3.7 3.1-.9.7-2.1 1.6-3.6 2.6s-2.9 1.8-4.1 2.2-2.4.7-3.5.7h-.2c-1.1 0-2.3-.2-3.5-.7-1.2-.5-2.6-1.2-4.1-2.2-1.5-1-2.7-1.9-3.6-2.6-.9-.7-2.2-1.7-3.7-3.1-1.6-1.3-2.5-2.1-2.9-2.4-11.3-9-22.2-17.6-32.7-25.8-8-6.3-12-14-12-23.1 0-.7.3-1.3.8-1.8s1.1-.8 1.8-.8h120c.4.2.8.3 1.1.2.3-.1.6.1.7.6.2.5.3.8.4.7s.2.3.2 1v1.1l.2 1.1z"/>
</svg>
